<svg id="Layer_2" data-name="Layer 2" xmlns="http://www.w3.org/2000/svg" viewBox="0 0 223.15 84.99"><defs><style>.cls-1{fill:none;stroke:#fff;stroke-miterlimit:10;stroke-width:3px;}.cls-2{font-size:45.41px;}.cls-2,.cls-3{fill:#fff;font-family:Poppins-SemiBold, Poppins;font-weight:600;}.cls-3{font-size:45.41px;}</style></defs><title>logov2</title><circle class="cls-1" cx="75.06" cy="40.95" r="39.45"/><path class="cls-1" d="M246.55,141.28s18.18-16.54,39.68-1.76c0,0,17.74,11.4,10.09,28.84a21.29,21.29,0,0,1-10.63,11c-5.42,2.43-13.18,3.09-20.45-6.54a11,11,0,0,1-1.82-9.81,8.82,8.82,0,0,1,5.56-5.87c8.07-3.06,10.63,9.24,9.31,9.24,0,0,4.81-7.92-1-13.67A11,11,0,0,0,267.14,150c-4.12.88-9.63,3.52-12.49,11.05-4.93,13,1.34,22.17,1.34,22.17s20.05,31.86,53.59,5.4" transform="translate(-201.91 -125.44)"/><path class="cls-1" d="M279.63,163.16" transform="translate(-201.91 -125.44)"/><text class="cls-2" transform="translate(0 58.06)">N</text><text class="cls-3" transform="translate(117.26 58.06)">MAD</text></svg>